:SAMPLES-PER-SECOND 30
:FULLY-SPECIFIED
:DEGREES
205
root  -77.2382 39.6423 -2.55327 -31.0835 85.6229 -28.2483
RightUpLeg  -21.1173 -12.5942 6.40743
RightLeg  17.8488 -1.54735 -0.397783
RightFoot  4.25575 0.822763 -5.81257
RightToes  -4.65663e-010 0 -3.6325e-017
Spine  9.70976 -2.62884 2.56807
Spine1  10.8619 -4.44239 5.69803
HEad  14.9939 8.96692 -9.77663
LeftShoulder1  9.33798 -12.9783 -49.4615
LeftArm  -12.8729 0.977679 -36.4676
LeftForeArm  38.1295 -11.4555 -4.42267
LeftHand  -0.244104 0.0205437 5.32207
RightShoulder  5.39259 9.06944 36.8847
RightArm  -5.51491 -23.0514 41.464
RightForeArm  14.1079 13.8861 5.98384
RightHand  -0.579973 -0.520676 -13.7943
LeftUpLeg  15.4503 7.68965 0.41969
LeftLeg  13.8097 4.08737 0.0609999
LeftFoot  -23.2923 0.181425 0.40607
LeftToes  -5.82109e-011 -4.83791e-012 -1.00937e-011
206
root  -76.0804 39.5446 -2.50788 -49.5033 85.4632 -46.501
RightUpLeg  -20.91 -12.9007 7.36599
RightLeg  21.5129 -2.06735 -1.16292
RightFoot  1.68043 0.783258 -6.72414
RightToes  -4.65663e-010 0 -3.6325e-017
Spine  10.8242 -3.46144 4.36356
Spine1  10.0242 -5.24764 6.45085
HEad  14.3633 9.74731 -10.5534
LeftShoulder1  9.3327 -13.0023 -49.3621
LeftArm  -10.4556 1.00989 -36.0845
LeftForeArm  39.1128 -14.8231 -4.20089
LeftHand  -0.244104 0.0205437 5.32207
RightShoulder  5.39207 9.11458 36.7315
RightArm  -6.23616 -22.8298 40.6277
RightForeArm  16.4394 11.6966 6.32231
RightHand  -0.687477 0.0084118 -14.8215
LeftUpLeg  15.6137 7.78846 1.81603
LeftLeg  17.4006 2.77825 1.14304
LeftFoot  -22.7938 -0.0869322 -2.21707
LeftToes  -5.82109e-011 -4.83791e-012 -1.00937e-011
207
root  -74.9753 39.4825 -2.42473 -60.6068 85.3219 -57.6655
RightUpLeg  -20.352 -13.1869 7.59081
RightLeg  24.2916 -2.54643 -1.47881
RightFoot  -1.5232 0.522666 -6.17769
RightToes  -4.65663e-010 0 -3.6325e-017
Spine  11.6235 -4.06925 5.67267
Spine1  9.5384 -5.67954 6.98504
HEad  13.9561 10.3167 -10.5285
LeftShoulder1  9.33306 -13.0625 -49.1851
LeftArm  -7.66661 1.29774 -35.0627
LeftForeArm  38.0683 -18.9117 -3.53216
LeftHand  -0.244104 0.0205437 5.32207
RightShoulder  5.32264 8.96492 36.6886
RightArm  -8.25106 -21.6315 39.7625
RightForeArm  19.263 9.45587 6.16385
RightHand  -0.782371 0.896305 -14.5336
LeftUpLeg  13.549 6.48658 2.68225
LeftLeg  24.2111 2.33282 1.49958
LeftFoot  -20.683 -0.422937 -6.86724
LeftToes  -5.82109e-011 -4.83791e-012 -1.00937e-011
208
root  -73.926 39.482 -2.30493 -67.5548 85.246 -65.0648
RightUpLeg  -19.7164 -14.1611 7.76941
RightLeg  25.807 -2.12246 -1.35157
RightFoot  -3.91057 0.32214 -5.37485
RightToes  -4.65663e-010 0 -3.6325e-017
Spine  11.7825 -4.24331 6.88256
Spine1  9.43634 -5.57969 7.14185
HEad  13.8299 9.97612 -9.91949
LeftShoulder1  9.27041 -13.1257 -48.6677
LeftArm  -6.64686 1.72258 -34.1237
LeftForeArm  38.4226 -23.3087 -3.10368
LeftHand  -0.244104 0.0205437 5.32207
RightShoulder  5.12463 8.56025 36.4834
RightArm  -10.0699 -20.01 39.2041
RightForeArm  20.2073 8.32236 5.70939
RightHand  -0.766938 1.12836 -13.7641
LeftUpLeg  9.11836 5.42314 3.52943
LeftLeg  33.5469 1.62696 1.51579
LeftFoot  -14.3767 -0.197075 -10.6257
LeftToes  -5.82109e-011 -4.83791e-012 -1.00937e-011
209
root  -72.933 39.5124 -2.18772 -70.2567 85.0083 -68.2556
RightUpLeg  -18.9259 -15.1435 7.97429
RightLeg  26.6416 -1.426 -1.01782
RightFoot  -5.6908 0.210027 -5.04081
RightToes  -4.65663e-010 0 -3.6325e-017
Spine  11.7916 -3.98752 8.42292
Spine1  9.38954 -4.88656 6.79956
HEad  13.9377 8.72014 -9.07039
LeftShoulder1  9.13768 -13.103 -48.0308
LeftArm  -8.74285 2.33928 -33.3531
LeftForeArm  41.2061 -27.6823 -3.75656
LeftHand  -0.244104 0.0205437 5.32207
RightShoulder  4.94321 8.25062 36.0714
RightArm  -10.9204 -18.35 38.6096
RightForeArm  17.6497 8.37969 5.60771
RightHand  -0.779091 0.859774 -14.5502
LeftUpLeg  3.24464 4.57378 4.22277
LeftLeg  43.6471 1.10704 1.52476
LeftFoot  -4.31129 0.665721 -10.7974
LeftToes  -5.82109e-011 -4.83791e-012 -1.00937e-011
210
root  -71.9915 39.5424 -2.0905 -67.925 84.7713 -66.1489
RightUpLeg  -17.8094 -15.646 7.89243
RightLeg  27.3263 -0.831176 -0.714886
RightFoot  -7.58201 0.107453 -4.81344
RightToes  -4.65663e-010 0 -3.6325e-017
Spine  12.0619 -3.46951 9.93828
Spine1  9.3253 -3.79768 6.19427
HEad  14.1537 7.26591 -8.30629
LeftShoulder1  9.00981 -13.0082 -47.625
LeftArm  -11.3227 3.21668 -32.5273
LeftForeArm  42.0551 -32.1438 -4.72846
LeftHand  -0.244104 0.0205437 5.32207
RightShoulder  4.91951 8.2895 35.7392
RightArm  -10.3171 -16.5016 37.4692
RightForeArm  12.6149 9.20374 6.01009
RightHand  -0.967514 1.1445 -17.1944
LeftUpLeg  -2.59349 4.00021 4.50641
LeftLeg  52.4514 0.847502 1.66177
LeftFoot  3.58371 1.09403 -8.47758
LeftToes  -5.82109e-011 -4.83791e-012 -1.00937e-011
211
root  -71.0206 39.669 -1.9879 -60.9474 85.0056 -59.2406
RightUpLeg  -16.0102 -15.7955 7.01016
RightLeg  27.2131 -0.194904 -0.35123
RightFoot  -9.2637 0.0139428 -4.21195
RightToes  -4.65663e-010 0 -3.6325e-017
Spine  12.2635 -2.78821 10.492
Spine1  9.34137 -2.69559 5.52251
HEad  14.4143 6.13708 -7.80452
LeftShoulder1  8.90543 -12.8931 -47.3992
LeftArm  -13.5545 4.28134 -31.5745
LeftForeArm  40.7743 -36.4704 -5.85844
LeftHand  -0.244104 0.0205437 5.32207
RightShoulder  4.96788 8.44804 35.5936
RightArm  -8.38248 -14.1978 35.893
RightForeArm  8.04408 10.6867 6.50931
RightHand  -1.31058 2.32152 -19.7823
LeftUpLeg  -7.63027 3.86173 4.08638
LeftLeg  58.5906 1.13447 2.55871
LeftFoot  5.39941 0.884207 -6.17933
LeftToes  -5.82109e-011 -4.83791e-012 -1.00937e-011
212
root  -69.984 39.9069 -1.87637 -53.226 85.6826 -51.6172
RightUpLeg  -13.5874 -15.8772 5.47581
RightLeg  26.0538 0.274135 0.161145
RightFoot  -10.2889 -0.0367785 -3.60979
RightToes  -4.65663e-010 0 -3.6325e-017
Spine  12.1349 -2.16195 10.2811
Spine1  9.39065 -1.87028 4.81124
HEad  14.7337 5.2702 -7.53866
LeftShoulder1  8.76433 -12.7456 -47.0643
LeftArm  -15.2806 5.43726 -30.7596
LeftForeArm  39.8061 -40.1793 -6.92655
LeftHand  -0.244104 0.0205437 5.32207
RightShoulder  4.90572 8.36648 35.3591
RightArm  -5.69249 -11.6103 34.5247
RightForeArm  5.10125 12.9292 6.61839
RightHand  -1.6171 3.5997 -20.9396
LeftUpLeg  -11.9703 3.75072 3.23469
LeftLeg  61.3767 1.7356 4.02674
LeftFoot  3.39824 0.580307 -4.64082
LeftToes  -5.82109e-011 -4.83791e-012 -1.00937e-011
213
root  -68.9279 40.1537 -1.78059 -49.0053 86.5394 -47.4276
RightUpLeg  -10.7333 -15.4906 3.64877
RightLeg  24.3658 -0.270609 0.830822
RightFoot  -11.0281 -0.0652943 -3.47131
RightToes  -4.65663e-010 0 -3.6325e-017
Spine  11.996 -1.75241 10.1165
Spine1  9.25669 -1.29323 3.99636
HEad  15.1023 4.4144 -7.32525
LeftShoulder1  8.58472 -12.5825 -46.5553
LeftArm  -16.5589 6.63609 -30.2178
LeftForeArm  40.6229 -42.8807 -7.69093
LeftHand  -0.244104 0.0205437 5.32207
RightShoulder  4.71486 8.04168 34.8768
RightArm  -2.83813 -9.25453 33.6581
RightForeArm  2.42053 15.8924 6.16979
RightHand  -1.76071 4.39209 -20.952
LeftUpLeg  -15.6253 3.26029 2.39643
LeftLeg  60.8722 2.28563 5.01604
LeftFoot  1.18029 0.38111 -3.54427
LeftToes  -5.82109e-011 -4.83791e-012 -1.00937e-011
214
root  -67.8755 40.3681 -1.69969 -47.5707 87.5528 -45.8076
RightUpLeg  -7.38213 -14.5288 1.677
RightLeg  22.2105 -1.74609 1.61959
RightFoot  -11.8718 -0.0952467 -3.32256
RightToes  -4.65663e-010 0 -3.6325e-017
Spine  12.1132 -1.45647 9.99495
Spine1  8.95988 -0.808947 3.03327
HEad  15.4141 3.47716 -7.02645
LeftShoulder1  8.45948 -12.5043 -46.0872
LeftArm  -17.3532 7.73819 -29.7607
LeftForeArm  42.1556 -44.4352 -8.09664
LeftHand  -0.244104 0.0205437 5.32207
RightShoulder  4.52725 7.73234 34.3396
RightArm  -0.600199 -7.42987 32.946
RightForeArm  -0.770175 19.3137 5.43995
RightHand  -1.81936 4.93341 -20.5387
LeftUpLeg  -18.3004 2.65523 1.56369
LeftLeg  57.4784 2.90897 5.42281
LeftFoot  -0.207135 0.272669 -2.79374
LeftToes  -5.82109e-011 -4.83791e-012 -1.00937e-011
215
root  -66.8308 40.5415 -1.61549 -43.666 88.596 -41.845
RightUpLeg  -4.1178 -12.9918 -0.0760543
RightLeg  19.7197 -3.67437 2.32264
RightFoot  -12.6298 -0.114937 -2.6321
RightToes  -4.65663e-010 0 -3.6325e-017
Spine  12.1375 -1.06757 9.65345
Spine1  8.76742 -0.31459 2.07061
HEad  15.4886 2.41329 -6.665
LeftShoulder1  8.4302 -12.5301 -45.8463
LeftArm  -17.6902 8.59925 -29.2412
LeftForeArm  42.8681 -44.844 -8.18851
LeftHand  -0.244104 0.0205437 5.32207
RightShoulder  4.41589 7.58671 33.8692
RightArm  -0.102727 -6.00513 32.0562
RightForeArm  -2.85422 22.7708 5.13002
RightHand  -1.88968 5.60466 -20.0568
LeftUpLeg  -20.098 2.70245 0.646219
LeftLeg  51.3047 3.6917 5.37735
LeftFoot  -1.37048 0.258851 -2.87719
LeftToes  -5.82109e-011 -4.83791e-012 -1.00937e-011
216
root  -65.7809 40.6525 -1.53147 -22.4405 89.4249 -21.0239
RightUpLeg  -1.61451 -11.3495 -1.16056
RightLeg  17.4863 -5.59895 2.76183
RightFoot  -13.1703 -0.12115 -1.99178
RightToes  -4.65663e-010 0 -3.6325e-017
Spine  11.691 -0.575076 9.23838
Spine1  8.78076 0.144183 1.38431
HEad  15.2928 1.43479 -6.39982
LeftShoulder1  8.42073 -12.5359 -45.7757
LeftArm  -17.8934 9.3228 -28.846
LeftForeArm  42.6954 -44.1433 -7.96936
LeftHand  -0.244104 0.0205437 5.32207
RightShoulder  4.34216 7.54259 33.3638
RightArm  -1.4334 -4.73968 31.1002
RightForeArm  -2.80004 25.9946 5.7066
RightHand  -1.92272 5.98275 -19.7427
LeftUpLeg  -21.2591 3.81063 -0.312862
LeftLeg  42.3897 3.94098 4.26203
LeftFoot  -1.72262 0.267109 -3.05496
LeftToes  -5.82109e-011 -4.83791e-012 -1.00937e-011
217
root  -64.7052 40.7014 -1.461 51.0781 89.7279 51.8754
RightUpLeg  0.463945 -10.2388 -1.8639
RightLeg  15.6929 -6.96717 3.04822
RightFoot  -13.8698 -0.134896 -1.85206
RightToes  -4.65663e-010 0 -3.6325e-017
Spine  11.0494 -0.0809745 8.70048
Spine1  8.8692 0.528614 0.962907
HEad  14.8966 0.68463 -6.16507
LeftShoulder1  8.36618 -12.4855 -45.617
LeftArm  -18.2567 10.1047 -28.8672
LeftForeArm  42.2261 -42.3522 -7.4328
LeftHand  -0.244104 0.0205437 5.32207
RightShoulder  4.2768 7.49805 32.9306
RightArm  -2.63232 -3.5867 30.2968
RightForeArm  -2.95716 29.0994 6.47504
RightHand  -1.87461 5.53967 -20.0267
LeftUpLeg  -21.7042 5.83033 -1.57288
LeftLeg  31.768 2.97752 2.34664
LeftFoot  -0.823976 0.226904 -2.41583
LeftToes  -5.82109e-011 -4.83791e-012 -1.00937e-011
218
root  -63.5933 40.6832 -1.40608 125.568 88.9567 126.078
RightUpLeg  2.91512 -9.99151 -2.80678
RightLeg  14.1735 -7.40451 3.35452
RightFoot  -15.0834 -0.147367 -1.42325
RightToes  -4.65663e-010 0 -3.6325e-017
Spine  10.7381 0.249822 7.8672
Spine1  9.1152 0.845401 0.431195
HEad  14.372 0.103102 -5.71956
LeftShoulder1  8.29648 -12.5268 -45.1025
LeftArm  -18.5501 10.8601 -29.3282
LeftForeArm  41.1398 -39.4574 -6.64709
LeftHand  -0.244104 0.0205437 5.32207
RightShoulder  4.25232 7.45588 32.8568
RightArm  -3.49167 -2.67466 29.6861
RightForeArm  -4.02683 31.8894 7.24238
RightHand  -1.92708 5.13794 -21.2961
LeftUpLeg  -21.3474 8.64578 -3.50784
LeftLeg  21.6734 1.52993 1.05281
LeftFoot  -0.376296 0.191638 -1.97532
LeftToes  -5.82109e-011 -4.83791e-012 -1.00937e-011
219
root  -62.4258 40.5685 -1.37008 133.182 87.8341 133.905
RightUpLeg  5.72291 -10.446 -3.95484
RightLeg  13.3696 -7.32219 3.51076
RightFoot  -16.5735 -0.13225 -0.436846
RightToes  -4.65663e-010 0 -3.6325e-017
Spine  10.6738 0.322993 7.00444
Spine1  9.74789 1.0863 -0.39944
HEad  13.8796 -0.409414 -5.04452
LeftShoulder1  8.24174 -12.7237 -44.2243
LeftArm  -18.1822 11.3673 -29.9473
LeftForeArm  38.7644 -35.6147 -5.75039
LeftHand  -0.244104 0.0205437 5.32207
RightShoulder  4.28261 7.49709 32.9865
RightArm  -3.88846 -2.16936 29.5878
RightForeArm  -5.32048 33.6634 7.79097
RightHand  -2.36784 6.32006 -23.4308
LeftUpLeg  -20.3564 11.2573 -5.50665
LeftLeg  14.1989 2.03105 0.419822
LeftFoot  -1.22668 0.192884 -2.07448
LeftToes  -5.82109e-011 -4.83791e-012 -1.00937e-011
